<svg xmlns="http://www.w3.org/2000/svg" viewBox="0 0 820 560" font-family="-apple-system,BlinkMacSystemFont,Segoe UI,Helvetica,Arial,sans-serif">
  <rect width="820" height="560" rx="14" fill="#0d1117"/>
  <text x="40" y="56" fill="#e6edf3" font-size="26" font-weight="700">Your context</text>
  <text x="40" y="84" fill="#9198a1" font-size="15">Everything your agents remember — stored locally, owned by you.</text>

  <!-- search + add -->
  <rect x="40" y="108" width="580" height="44" rx="9" fill="#161b22" stroke="#30363d"/>
  <text x="58" y="135" fill="#9198a1" font-size="15">Search your context…</text>
  <rect x="636" y="108" width="120" height="44" rx="9" fill="#4493f8"/>
  <text x="696" y="135" fill="#ffffff" font-size="15" font-weight="600" text-anchor="middle">+ Add</text>

  <text x="40" y="188" fill="#9198a1" font-size="13">3 items</text>

  <!-- card 1 -->
  <g>
    <rect x="40" y="202" width="716" height="96" rx="12" fill="#161b22" stroke="#30363d"/>
    <rect x="58" y="222" width="52" height="20" rx="6" fill="none" stroke="#30363d"/>
    <text x="84" y="236" fill="#9198a1" font-size="11" letter-spacing="0.5" text-anchor="middle">FACT</text>
    <text x="122" y="237" fill="#e6edf3" font-size="16">Comfortable with SQL, API integration, and workflow automation</text>
    <rect x="58" y="252" width="54" height="20" rx="10" fill="#21262d"/>
    <text x="85" y="266" fill="#9198a1" font-size="12" text-anchor="middle">skills</text>
    <text x="58" y="290" fill="#9198a1" font-size="12">from uctx-seed · 2026-07-19 · #3</text>
    <text x="712" y="230" fill="#9198a1" font-size="15">✎</text>
    <text x="736" y="231" fill="#9198a1" font-size="17">×</text>
  </g>

  <!-- card 2 -->
  <g>
    <rect x="40" y="310" width="716" height="96" rx="12" fill="#161b22" stroke="#30363d"/>
    <rect x="58" y="330" width="54" height="20" rx="6" fill="none" stroke="#30363d"/>
    <text x="85" y="344" fill="#9198a1" font-size="11" letter-spacing="0.5" text-anchor="middle">NOTE</text>
    <text x="124" y="345" fill="#e6edf3" font-size="16">Learning agentic frameworks; building a Lab 1 job-hunting agent</text>
    <rect x="58" y="360" width="72" height="20" rx="10" fill="#21262d"/>
    <text x="94" y="374" fill="#9198a1" font-size="12" text-anchor="middle">learning</text>
    <rect x="138" y="360" width="60" height="20" rx="10" fill="#21262d"/>
    <text x="168" y="374" fill="#9198a1" font-size="12" text-anchor="middle">agents</text>
    <text x="58" y="398" fill="#9198a1" font-size="12">from uctx-seed · 2026-07-19 · #2</text>
    <text x="712" y="338" fill="#9198a1" font-size="15">✎</text>
    <text x="736" y="339" fill="#9198a1" font-size="17">×</text>
  </g>

  <!-- card 3 -->
  <g>
    <rect x="40" y="418" width="716" height="96" rx="12" fill="#161b22" stroke="#30363d"/>
    <rect x="58" y="438" width="90" height="20" rx="6" fill="none" stroke="#30363d"/>
    <text x="103" y="452" fill="#9198a1" font-size="11" letter-spacing="0.5" text-anchor="middle">PREFERENCE</text>
    <text x="160" y="453" fill="#e6edf3" font-size="16">Prefers Python, tabs over spaces</text>
    <rect x="58" y="468" width="60" height="20" rx="10" fill="#21262d"/>
    <text x="88" y="482" fill="#9198a1" font-size="12" text-anchor="middle">coding</text>
    <rect x="126" y="468" width="50" height="20" rx="10" fill="#21262d"/>
    <text x="151" y="482" fill="#9198a1" font-size="12" text-anchor="middle">style</text>
    <text x="58" y="506" fill="#9198a1" font-size="12">from uctx-seed · 2026-07-19 · #1</text>
    <text x="712" y="446" fill="#9198a1" font-size="15">✎</text>
    <text x="736" y="447" fill="#9198a1" font-size="17">×</text>
  </g>
</svg>
